<?xml version="1.0" standalone="no"?>
<!DOCTYPE svg PUBLIC "-//W3C//DTD SVG 20010904//EN"
 "http://www.w3.org/TR/2001/REC-SVG-20010904/DTD/svg10.dtd">
<svg version="1.0" xmlns="http://www.w3.org/2000/svg"
 width="214.000000pt" height="189.000000pt" viewBox="0 0 214.000000 189.000000"
 preserveAspectRatio="xMidYMid meet">

<g transform="translate(0.000000,189.000000) scale(0.100000,-0.100000)"
fill="#000000" stroke="none">
<path d="M576 1118 c-60 -183 -128 -393 -152 -465 l-42 -133 72 0 72 0 51 158
51 157 133 0 134 0 50 -157 49 -158 73 0 c40 0 73 1 73 3 0 2 -40 127 -191
590 l-110 337 -77 0 -78 0 -108 -332z m232 -11 c23 -73 42 -136 42 -140 0 -4
-41 -7 -91 -7 -69 0 -90 3 -87 13 3 6 22 69 44 139 21 70 42 128 45 128 3 0
24 -60 47 -133z"/>
<path d="M1389 1200 c-38 -30 -49 -30 -49 2 0 15 -8 18 -60 18 l-60 0 0 -350
0 -350 65 0 65 0 0 251 0 250 30 45 c17 24 39 44 49 44 36 0 41 -41 41 -320
l0 -270 70 0 70 0 0 251 0 250 30 45 c37 53 63 57 79 13 7 -20 11 -130 11
-295 l0 -264 65 0 65 0 0 288 c0 311 -5 348 -50 394 -24 23 -37 28 -79 28 -46
0 -56 -4 -94 -40 l-43 -39 -36 39 c-32 36 -40 40 -84 40 -40 0 -56 -6 -85 -30z"/>
<path d="M391 421 c-24 -79 -24 -81 -12 -81 5 0 12 11 15 25 5 18 13 25 31 25
18 0 26 -7 31 -25 3 -14 10 -25 16 -25 5 0 7 8 4 18 -26 92 -42 132 -52 132
-7 0 -21 -31 -33 -69z m49 -3 c0 -5 -7 -8 -15 -8 -15 0 -20 21 -8 33 7 7 23
-11 23 -25z"/>
<path d="M1130 415 c0 -43 4 -75 10 -75 6 0 10 26 11 58 0 44 2 52 9 35 5 -13
14 -23 19 -23 5 0 13 10 18 23 6 17 9 9 14 -38 l6 -60 1 78 c2 76 -11 104 -24
52 -3 -14 -10 -25 -15 -25 -5 0 -11 11 -15 25 -3 14 -12 25 -20 25 -11 0 -14
-18 -14 -75z"/>
<path d="M1300 480 c0 -5 5 -10 10 -10 6 0 10 5 10 10 0 6 -4 10 -10 10 -5 0
-10 -4 -10 -10z"/>
<path d="M1770 480 c0 -5 7 -10 15 -10 12 0 15 -14 15 -65 0 -58 2 -65 20 -65
11 0 20 5 20 10 0 6 -7 10 -15 10 -12 0 -15 14 -15 65 0 58 -2 65 -20 65 -11
0 -20 -4 -20 -10z"/>
<path d="M1410 466 c0 -8 -6 -17 -12 -19 -10 -4 -10 -6 0 -6 7 -1 12 -15 12
-35 0 -19 3 -41 6 -50 7 -17 54 -22 54 -6 0 6 -9 10 -20 10 -16 0 -20 7 -20
35 0 22 6 38 18 44 16 10 16 10 0 11 -10 0 -18 7 -18 15 0 8 -4 15 -10 15 -5
0 -10 -6 -10 -14z"/>
<path d="M1540 465 c0 -8 -5 -15 -11 -15 -8 0 -8 -4 -1 -13 6 -7 12 -30 14
-52 3 -35 6 -40 31 -43 15 -2 27 1 27 7 0 6 -9 11 -20 11 -17 0 -20 7 -20 39
0 29 5 41 18 44 16 4 16 5 0 6 -10 0 -18 8 -18 16 0 8 -4 15 -10 15 -5 0 -10
-7 -10 -15z"/>
<path d="M511 373 c1 -43 4 -68 6 -56 3 16 13 23 35 25 24 2 34 9 41 31 15 46
-5 77 -48 77 l-35 0 1 -77z m59 53 c18 -23 8 -61 -17 -64 -17 -3 -24 3 -29 22
-4 16 -1 32 6 41 16 19 24 19 40 1z"/>
<path d="M642 438 c-16 -16 -16 -70 0 -86 7 -7 21 -12 33 -12 30 0 45 19 45
55 0 36 -15 55 -45 55 -12 0 -26 -5 -33 -12z m58 -18 c15 -27 3 -60 -20 -60
-34 0 -46 53 -16 72 17 12 25 9 36 -12z"/>
<path d="M759 426 c-16 -35 -4 -74 26 -82 35 -9 53 1 61 31 10 42 -10 75 -46
75 -23 0 -33 -6 -41 -24z m61 0 c6 -8 10 -25 8 -38 -2 -17 -10 -23 -28 -23
-18 0 -26 6 -28 23 -3 22 13 52 28 52 4 0 13 -7 20 -14z"/>
<path d="M902 390 c1 -40 2 -46 5 -20 5 42 19 60 44 60 11 0 19 4 19 10 0 5
-16 9 -35 7 l-35 -2 2 -55z"/>
<path d="M1010 443 c0 -21 35 -103 43 -100 5 1 18 25 28 52 22 58 22 55 10 55
-5 0 -15 -16 -23 -36 -11 -32 -14 -33 -25 -18 -7 10 -13 26 -13 36 0 10 -4 18
-10 18 -5 0 -10 -3 -10 -7z"/>
<path d="M1283 443 c13 -3 17 -15 17 -54 0 -27 5 -49 10 -49 6 0 10 25 10 55
0 54 -1 55 -27 54 -17 -1 -21 -3 -10 -6z"/>
<path d="M1650 439 c0 -6 8 -8 19 -4 10 3 24 -1 31 -10 11 -13 8 -16 -18 -21
-60 -12 -52 -65 9 -62 30 1 39 5 34 15 -3 8 -5 32 -5 54 0 38 -1 39 -35 39
-19 0 -35 -5 -35 -11z m58 -61 c-5 -15 -48 -24 -48 -10 0 14 12 22 33 22 10 0
17 -5 15 -12z"/>
</g>
</svg>
