<?xml version="1.0" encoding="UTF-8" standalone="no"?>
<svg
   xmlns:dc="http://purl.org/dc/elements/1.1/"
   xmlns:cc="http://creativecommons.org/ns#"
   xmlns:rdf="http://www.w3.org/1999/02/22-rdf-syntax-ns#"
   xmlns:svg="http://www.w3.org/2000/svg"
   xmlns="http://www.w3.org/2000/svg"
   id="svg8"
   version="1.1"
   viewBox="0 0 210 297"
   height="297mm"
   width="210mm">
  <defs
     id="defs2" />
  <metadata
     id="metadata5">
    <rdf:RDF>
      <cc:Work
         rdf:about="">
        <dc:format>image/svg+xml</dc:format>
        <dc:type
           rdf:resource="http://purl.org/dc/dcmitype/StillImage" />
        <dc:title></dc:title>
      </cc:Work>
    </rdf:RDF>
  </metadata>
  <g
     id="layer1">
    <g
       transform="translate(-113.83423,56.390106)"
       id="g1201">
      <g
         id="g1020"
         transform="translate(234.79053,154.35165)"
         style="fill:#ff2a2a;fill-opacity:1">
        <path
           id="path848"
           transform="scale(0.26458333)"
           d="m 917.56055,354.39844 1.55078,188.15625 43.96875,24.90429 v -77.68554 l 119.11132,67.46679 -0.9082,-110.10546 z m 45.51953,63.17773 76.34572,43.24414 0.3398,41.26563 -76.68552,-43.43555 z"
           style="opacity:1;fill:#ff2a2a;fill-opacity:1;stroke-width:0.99999994" />
        <path
           id="path966"
           transform="scale(0.26458333)"
           d="m 1039.7656,570.10742 v 40.87305 l 42.8653,24.30859 0.019,-40.39453 z"
           style="opacity:1;fill:#ff2a2a;fill-opacity:1;stroke-width:0.99999994" />
      </g>
      <g
         id="g1036"
         transform="translate(234.79053,154.35165)"
         style="fill:#ffd42a;fill-opacity:1">
        <path
           style="opacity:1;fill:#ffd42a;fill-opacity:1;stroke-width:0.26458332"
           d="m 285.62969,68.521968 -42.88294,25.2894 43.34276,24.493042 42.88294,-25.289399 z"
           id="path844" />
        <path
           id="path954"
           transform="scale(0.26458333)"
           d="m 1214.248,411.80469 -81.9414,48.50976 0.3145,34.07422 111.4531,-65.72851 z"
           style="opacity:1;fill:#ffd42a;fill-opacity:1;stroke-width:0.99999994" />
        <path
           id="path976"
           transform="scale(0.26458333)"
           d="m 1206.4902,483.78125 -124.1875,73.52148 -0.1132,-12.21484 -0.098,0.0586 0.1,12.09375 -10.5117,-5.95507 -31.9141,18.82226 43.3614,24.50391 123.7109,-73.23828 z"
           style="opacity:1;fill:#ffd42a;fill-opacity:1;stroke-width:0.99999994" />
        <path
           id="path987"
           transform="scale(0.26458333)"
           d="m 1081.2832,447.13477 0.416,50.37109 -0.414,-50.37109 z m -118.20312,42.63867 v 77.68554 l 67.19332,-39.625 z m 0,77.68554 -43.96875,-24.90429 -0.006,0.0547 z"
           style="opacity:1;fill:#ffd42a;fill-opacity:1;stroke-width:0.99999994" />
        <path
           id="path998"
           transform="scale(0.26458333)"
           d="m 998.60742,437.69922 -35.52734,20.95117 76.68552,43.33594 -0.3398,-41.16602 z m 82.67578,9.43555 0.6484,78.67968 0.08,0.0449 z"
           style="opacity:1;fill:#ffd42a;fill-opacity:1;stroke-width:0.99999994" />
      </g>
      <g
         id="g1016"
         transform="translate(234.79053,154.35165)"
         style="fill:#ff8c2a;fill-opacity:1">
        <path
           id="path846"
           d="m 286.5498,168.08681 -0.0986,-10.68764 32.85781,-19.45251 -0.092,-9.94621 -32.8578,19.45251 -0.26922,-29.14852 42.88289,-25.289666 0.10449,11.319466 -29.48803,17.45753 0.0837,9.08216 29.48803,-17.45753 0.27156,29.38072 z"
           style="opacity:1;fill:#ff8c2a;fill-opacity:1;stroke-width:0.26458332" />
        <path
           id="path1006"
           transform="scale(0.26458333)"
           d="m 963.08008,417.57617 v 41.07422 l 35.89062,-20.74414 z"
           style="opacity:1;fill:#ff8c2a;fill-opacity:1;stroke-width:0.99999994" />
      </g>
    </g>
    <ellipse
       ry="9.8752937"
       rx="10.247946"
       cy="185.50815"
       cx="291.1691"
       id="path1064"
       style="opacity:1;fill:#ffd42a;fill-opacity:1;stroke-width:0.26458332" />
    <ellipse
       style="opacity:1;fill:#ff932a;fill-opacity:1;stroke-width:0.26458332"
       id="ellipse1066"
       cx="241.29254"
       cy="79.929871"
       rx="10.247946"
       ry="9.8752937" />
    <ellipse
       ry="9.8752937"
       rx="10.247946"
       cy="79.929871"
       cx="270.73212"
       id="ellipse1068"
       style="opacity:1;fill:#ff542a;fill-opacity:1;stroke-width:0.26458332" />
    <path
       id="path819"
       d="M 106.17201,243.65468 1.9048422,183.38679 106.23201,123.22265 210.49918,183.49056 Z"
       style="opacity:1;fill:#ff8e00;fill-opacity:1;stroke-width:0.64004397" />
    <path
       id="path821"
       d="m 210.49918,183.49056 -104.26717,-60.26791 0.06,-120.43201 104.26718,60.267872 z"
       style="opacity:1;fill:#ff5400;fill-opacity:1;stroke-width:0.64004397" />
    <path
       style="opacity:1;fill:#ff5400;fill-opacity:1;stroke-width:0.64004397"
       d="M 1.964821,183.49056 106.232,123.22265 106.172,2.79064 1.9048347,63.058512 Z"
       id="path829" />
    <g
       id="g1088"
       transform="matrix(0.93632808,0,0,0.93632808,77.819072,1.8679074)"
       style="fill:#5096ff;fill-opacity:1">
      <path
         id="path1084"
         transform="scale(0.26458333)"
         d="m 917.56055,354.39844 1.55078,188.15625 43.96875,24.90429 v -77.68554 l 119.11132,67.46679 -0.9082,-110.10546 z m 45.51953,63.17773 76.34572,43.24414 0.3398,41.26563 -76.68552,-43.43555 z"
         style="opacity:1;fill:#5096ff;fill-opacity:1;stroke-width:0.99999994" />
      <path
         id="path1086"
         transform="scale(0.26458333)"
         d="m 1039.7656,570.10742 v 40.87305 l 42.8653,24.30859 0.019,-40.39453 z"
         style="opacity:1;fill:#5096ff;fill-opacity:1;stroke-width:0.99999994" />
    </g>
    <g
       id="g1100"
       transform="matrix(0.93632808,0,0,0.93632808,77.819072,1.8679074)"
       style="fill:#fefffe;fill-opacity:1">
      <path
         style="opacity:1;fill:#fefffe;fill-opacity:1;stroke-width:0.26458332"
         d="m 285.62969,68.521968 -42.88294,25.2894 43.34276,24.493042 42.88294,-25.289399 z"
         id="path1090" />
      <path
         id="path1092"
         transform="scale(0.26458333)"
         d="m 1214.248,411.80469 -81.9414,48.50976 0.3145,34.07422 111.4531,-65.72851 z"
         style="opacity:1;fill:#fefffe;fill-opacity:1;stroke-width:0.99999994" />
      <path
         id="path1094"
         transform="scale(0.26458333)"
         d="m 1206.4902,483.78125 -124.1875,73.52148 -0.1132,-12.21484 -0.098,0.0586 0.1,12.09375 -10.5117,-5.95507 -31.9141,18.82226 43.3614,24.50391 123.7109,-73.23828 z"
         style="opacity:1;fill:#fefffe;fill-opacity:1;stroke-width:0.99999994" />
      <path
         id="path1096"
         transform="scale(0.26458333)"
         d="m 1081.2832,447.13477 0.416,50.37109 -0.414,-50.37109 z m -118.20312,42.63867 v 77.68554 l 67.19332,-39.625 z m 0,77.68554 -43.96875,-24.90429 -0.006,0.0547 z"
         style="opacity:1;fill:#fefffe;fill-opacity:1;stroke-width:0.99999994" />
      <path
         id="path1098"
         transform="scale(0.26458333)"
         d="m 998.60742,437.69922 -35.52734,20.95117 76.68552,43.33594 -0.3398,-41.16602 z m 82.67578,9.43555 0.6484,78.67968 0.08,0.0449 z"
         style="opacity:1;fill:#fefffe;fill-opacity:1;stroke-width:0.99999994" />
    </g>
    <g
       id="g1106"
       transform="matrix(0.93632808,0,0,0.93632808,77.819072,1.8679074)"
       style="fill:#96c8ff;fill-opacity:1">
      <path
         id="path1102"
         d="m 286.5498,168.08681 -0.0986,-10.68764 32.85781,-19.45251 -0.092,-9.94621 -32.8578,19.45251 -0.26922,-29.14852 42.88289,-25.289666 0.10449,11.319466 -29.48803,17.45753 0.0837,9.08216 29.48803,-17.45753 0.27156,29.38072 z"
         style="opacity:1;fill:#96c8ff;fill-opacity:1;stroke-width:0.26458332" />
      <path
         id="path1104"
         transform="scale(0.26458333)"
         d="m 963.08008,417.57617 v 41.07422 l 35.89062,-20.74414 z"
         style="opacity:1;fill:#96c8ff;fill-opacity:1;stroke-width:0.99999994" />
    </g>
    <path
       style="opacity:1;fill:#ffffff;fill-opacity:1;stroke-width:0.36485991"
       d="M 106.26862,64.679665 169.91524,96.76385 106.232,128.7928 42.5854,96.708613 Z"
       id="path5107" />
    <path
       id="path5109"
       d="m 42.585364,96.708283 -0.03652,64.113467 13.243874,6.67593 -0.0171,-0.1282 V 144.3281 l 33.378943,16.82624 v 23.04137 l -0.152308,0.0435 17.193027,8.66683 0.0365,-64.11268 z M 55.775617,114.9325 89.15456,131.75874 v 16.93969 L 55.775617,131.87141 Z"
       style="opacity:1;fill:#ffcd64;fill-opacity:1;stroke-width:0.36485991" />
    <path
       id="path5111"
       d="m 169.87878,96.70853 -63.64698,32.08448 0.037,64.11311 10.9209,-5.50537 v -47.59782 l 15.39257,-7.75957 v 47.59781 l 12.2804,-6.19042 v -47.09768 l 15.39256,-7.75957 v 47.09768 l 9.6601,-4.86953 z"
       style="opacity:1;fill:#ffe3a8;fill-opacity:1;stroke-width:0.36485991" />
    <rect
       style="opacity:0.5;fill:#000000;fill-opacity:0;stroke:none;stroke-width:0.21246697;stroke-opacity:1"
       id="rect5139"
       width="14.70878"
       height="69.807396"
       x="147.29121"
       y="126.35296" />
    <path
       id="path5163"
       d="m 72.596275,123.41175 -16.820831,8.45993 33.378895,16.82639 v -16.93932 z"
       style="opacity:1;fill:#ffffff;fill-opacity:1;stroke-width:0.36485991" />
    <path
       id="path5165"
       d="m 132.58226,132.04336 -15.39257,7.75957 v 31.89832 l 15.39257,7.93992 z"
       style="opacity:1;fill:#ffcd64;fill-opacity:1;stroke-width:0.36485991" />
    <path
       style="opacity:1;fill:#ffcd64;fill-opacity:1;stroke-width:0.36485991"
       d="m 160.25522,118.5935 -15.39256,7.75957 v 31.89831 l 15.39256,7.93993 z"
       id="path5173" />
    <path
       id="path5175"
       d="m 55.775444,144.32786 v 23.04125 l 22.879679,-11.5076 z"
       style="opacity:1;fill:#ffe3a8;fill-opacity:1;stroke-width:0.36485991" />
    <path
       id="path5192"
       d="m 55.775444,114.93236 v 16.93932 l 16.820831,-8.45993 z"
       style="opacity:1;fill:#ffe3a8;fill-opacity:1;stroke-width:0.36485991" />
  </g>
</svg>
